ply
format ascii 1.0
element vertex 16
property float x
property float y
property float z
element edge 24
property int vertex1
property int vertex2
end_header
-0.6017458438873291 -0.4688795804977417 0.0454254150390625
-0.1574457436800003 -0.366180419921875 -0.0014824867248535156
-0.2790111303329468 0.009166919626295567 -0.2931184768676758
-0.7233112454414368 -0.0935322493314743 -0.24843454360961914
-0.7233112454414368 -0.3400033116340637 -0.6421618461608887
-0.6017458438873291 -0.7153506875038147 -0.387418270111084
0.16528896987438202 0.3583371639251709 0.0018630027770996094
0.2868543565273285 -0.01701018214225769 0.27762603759765625
0.2868543565273285 -0.5099523067474365 -0.5324864387512207
0.16528895497322083 -0.13460499048233032 -0.752467155456543
-0.2790111303329468 0.5021090507507324 0.4866337776184082
0.6095890998840332 0.7075073719024658 0.37778615951538086
0.6095890998840332 0.4610363245010376 -0.0298919677734375
0.7311545014381409 0.0856889858841896 0.22276830673217773
0.7311545014381409 0.3321600556373596 0.6085004806518555
-0.1574457287788391 0.12676171958446503 0.732149600982666
0 1
1 2
2 3
0 3
4 5
0 5
3 4
6 7
7 8
8 9
6 9
4 9
5 8
2 10
10 11
11 12
6 12
7 13
13 14
14 15
1 15
10 15
11 14
12 13
