ply
format ascii 1.0
element vertex 26
property float x
property float y
property float z
element edge 40
property int vertex1
property int vertex2
end_header
-0.5329714417457581 0.8088237047195435 0.08490157127380371
0.7840431928634644 0.6251855492591858 -0.0727989673614502
0.5462938547134399 0.12672549486160278 -0.8903515338897705
-0.7707207202911377 0.31036365032196045 -0.6809203624725342
0.5408145785331726 -0.6905389428138733 -0.4319784641265869
0.5408145785331726 -0.8166664838790894 -0.3486506938934326
-0.7762000560760498 -0.6330283284187317 -0.15867114067077637
-0.7762000560760498 -0.3924850821495056 -0.2774078845977783
0.41852468252182007 -0.5511063933372498 -0.4862062931060791
0.41852468252182007 0.030125312507152557 -0.85929274559021
-0.7707207202911377 0.19594796001911163 -0.6490023136138916
-0.5329714417457581 0.6944079995155334 0.13021302223205566
0.6222484111785889 -0.5198065638542175 -0.10265183448791504
0.6971300840377808 -0.36281129717826843 0.13071656227111816
-0.6198845505714417 -0.17917312681674957 0.2982027530670166
-0.6947662234306335 -0.33616840839385986 0.012735128402709961
0.7785638570785522 -0.19207891821861267 0.326068639755249
-0.5384507179260254 -0.13456828892230988 0.5926897525787354
-0.5384507179260254 0.105974942445755 0.4539978504180908
-0.6947662234306335 -0.4622959494590759 0.06214785575866699
-0.6198845505714417 -0.30530065298080444 0.3166654109954834
0.6562740206718445 -0.05264638736844063 0.21650958061218262
0.6562740206718445 0.5285853743553162 -0.0426485538482666
0.6222484111785889 -0.6459341049194336 -0.04987788200378418
0.6971300840377808 -0.4889388382434845 0.16098904609680176
0.7785638570785522 -0.31820645928382874 0.3731567859649658
0 1
1 2
2 3
0 3
2 4
4 5
5 6
6 7
7 8
8 9
9 10
3 10
0 11
10 11
12 13
13 14
14 15
12 15
1 16
13 16
4 12
17 18
7 18
6 19
15 19
14 20
17 20
18 21
8 21
21 22
9 22
11 22
12 23
5 23
19 23
13 24
20 24
16 25
24 25
17 25
